<?xml version="1.0" encoding="UTF-8"?>
<svg id="Layer_2" data-name="Layer 2" xmlns="http://www.w3.org/2000/svg" viewBox="0 0 641.02387 639.07143">
  <defs>
    <style>
      .cls-1 {
        stroke-width: 4px;
      }

      .cls-1, .cls-2, .cls-3, .cls-4, .cls-5, .cls-6, .cls-7, .cls-8, .cls-9 {
        stroke-miterlimit: 10;
      }

      .cls-1, .cls-10 {
        fill: #fe8f1d;
      }

      .cls-1, .cls-6 {
        stroke: #fe8f1d;
      }

      .cls-2, .cls-3, .cls-4, .cls-7, .cls-9 {
        stroke: #151f6d;
      }

      .cls-2, .cls-3, .cls-5, .cls-6, .cls-9 {
        stroke-width: 3px;
      }

      .cls-2, .cls-11, .cls-7, .cls-8 {
        fill: #fff;
      }

      .cls-12, .cls-13, .cls-14, .cls-15, .cls-16, .cls-11, .cls-10, .cls-17 {
        stroke-width: 0px;
      }

      .cls-12, .cls-9 {
        fill: #151f6d;
      }

      .cls-13 {
        fill: #ffce63;
      }

      .cls-14 {
        fill: #ffaf00;
      }

      .cls-3, .cls-6 {
        fill: none;
      }

      .cls-4 {
        stroke-width: 2px;
      }

      .cls-4, .cls-5, .cls-16 {
        fill: #c9f0ff;
      }

      .cls-5 {
        stroke: #c9f0ff;
      }

      .cls-17 {
        fill: #ffe294;
      }

      .cls-7 {
        stroke-width: 5px;
      }

      .cls-8 {
        stroke: #fff;
      }
    </style>
  </defs>
  <g id="Layer_1-2" data-name="Layer 1">
    <path class="cls-12" d="m369.44,208.43994c12.39014-12.3999,20.06006-29.5199,20.06006-48.43994,0-37.82996-30.66992-68.5-68.5-68.5h-.25V0h320v320h-91.51001c.01001.17004.01001.33008.01001.5,0,18.92004-7.66992,36.04004-20.06006,48.43994-12.3999,12.39014-29.53003,20.06006-48.43994,20.06006s-36.04004-7.66992-48.43994-20.06006c-12.39014-12.3999-20.06006-29.5199-20.06006-48.43994,0-.16992,0-.32996.01001-.5h-91.51001v-91.5h.25c18.91992,0,36.04004-7.66992,48.43994-20.06006Z"/>
    <path class="cls-13" d="m432.58393,367.76137c12.3999,12.39014,29.5199,20.06006,48.43994,20.06006,37.82996,0,68.5-30.66992,68.5-68.5v-.25h91.5v320h-320v-91.51001c-.17004.01001-.33008.01001-.5.01001-18.92004,0-36.04004-7.66992-48.43994-20.06006-12.39014-12.3999-20.06006-29.53003-20.06006-48.43994s7.66992-36.04004,20.06006-48.43994c12.3999-12.39014,29.5199-20.06006,48.43994-20.06006.16992,0,.32996,0,.5.01001v-91.51001h91.5v.25c0,18.91992,7.66992,36.04004,20.06006,48.43994Z"/>
    <path class="cls-16" d="m272.60211,430.13151c-12.44914,12.3999-20.15559,29.51989-20.1556,48.43993-.00001,37.82996,30.81595,68.50001,68.82618,68.50002h.25119l-.00003,91.5-321.52384-.0001.00011-320,91.94578.00003c-.01006-.17004-.01006-.33008-.01006-.5,0-18.92004,7.70646-36.04004,20.1556-48.43993,12.45895-12.39013,29.67066-20.06005,48.67062-20.06004,18.99996,0,36.21166,7.66993,48.67061,20.06007,12.44913,12.39991,20.15558,29.5199,20.15557,48.43995,0,.16992,0,.32996-.01006.5l91.94578.00003-.00003,91.5h-.25119c-19.01002,0-36.21166,7.66991-48.67062,20.06004Z"/>
    <path class="cls-17" d="m208.46382,270.59883c-12.3999-12.33482-29.5199-19.9705-48.43994-19.9705-37.82996,0-68.5,30.533-68.5,68.19419v.24888s-91.5,0-91.5,0V.50001s319.99999,0,319.99999,0v91.10147c.17005-.00997.33008-.00997.5-.00997,18.92004,0,36.04004,7.63568,48.43994,19.9705,12.39014,12.34454,20.06006,29.3982,20.06006,48.22369s-7.66992,35.87914-20.06006,48.22369c-12.3999,12.33482-29.5199,19.9705-48.43994,19.9705-.16992,0-.32996,0-.5-.00997v91.10147s-91.5,0-91.5,0v-.24888c0-18.83546-7.66992-35.87914-20.06006-48.22369Z"/>
    <rect class="cls-5" x="410.52381" y="53.04202" width="155.04737" height="207.52941"/>
    <rect class="cls-11" x="424.46065" y="40.07143" width="151.56316" height="207.52941"/>
    <line class="cls-1" x1="441.8817" y1="86.39496" x2="560.34486" y2="86.39496"/>
    <line class="cls-1" x1="441.44618" y1="117.89496" x2="559.90934" y2="117.89496"/>
    <line class="cls-1" x1="442.45204" y1="149.46113" x2="560.91519" y2="149.46113"/>
    <line class="cls-1" x1="442.01651" y1="180.96113" x2="560.47967" y2="180.96113"/>
    <polygon class="cls-9" points="187.33645 591.07143 112.7827 591.07143 102.26871 532.71563 194.98299 532.71563 187.33645 591.07143"/>
    <polygon class="cls-14" points="207.02381 532.13208 89.02381 532.13208 89.02381 520.04899 207.02381 519.2938 207.02381 532.13208"/>
    <rect class="cls-2" x="95.04422" y="374.57143" width="102.34694" height="99.20485" rx="49.60238" ry="49.60238"/>
    <rect class="cls-17" x="103.47279" y="382.74124" width="85.4898" height="82.86523" rx="41.43257" ry="41.43257"/>
    <path class="cls-10" d="m124.24021,421.25606h41.87212s4.78904,26.84367-20.49668,26.84367c-24.08163,0-21.37544-26.84367-21.37544-26.84367Z"/>
    <path class="cls-6" d="m129.36054,419.50539s0-15.75606,15.65306-15.75606c14.44898,0,14.36297,15.75606,14.36297,15.75606"/>
    <path class="cls-8" d="m146.41031,431.91184l1.01146,3.93317h-4.81633l1.01146-3.93317c-.61409-.43183-1.01146-1.12053-1.01146-1.9024,0-.64197.26486-1.22553.71044-1.64567.43345-.43183,1.03549-.68856,1.69772-.68856s1.26427.25673,1.69772.68856c.44558.42014.71044,1.0037.71044,1.64567s-.26486,1.22553-.71044,1.64553c-.09627.09346-.19262.17524-.30102.25687Z"/>
    <line class="cls-7" x1="146.21764" y1="473.77628" x2="146.81973" y2="519.2938"/>
    <path class="cls-2" d="m147.42177,517.04502s5.14306-45.21624,51.17347-44.42561c0,0-3.34299,46.94808-51.17347,44.42561Z"/>
    <g>
      <rect class="cls-16" x="50.52381" y="115.07143" width="232" height="58"/>
      <path class="cls-15" d="m284.02381,174.57143h-13.5v-3h10.5v-2.5h3v5.5Zm-25.5,0h-12v-3h12v3Zm-24,0h-12v-3h12v3Zm-24,0h-12v-3h12v3Zm-24,0h-12v-3h12v3Zm-24,0h-12v-3h12v3Zm-24,0h-12v-3h12v3Zm-24,0h-12v-3h12v3Zm-24,0h-12v-3h12v3Zm-24,0h-12v-3h12v3Zm-14.5-9.5h-3v-12h3v12Zm232-8h-3v-12h3v12Zm-232-16h-3v-12h3v12Zm232-8h-3v-12h3v12Zm-232-16h-3v-3.5h11.5v3h-8.5v.5Zm224.5-.5h-12v-3h12v3Zm-24,0h-12v-3h12v3Zm-24,0h-12v-3h12v3Zm-24,0h-12v-3h12v3Zm-24,0h-12v-3h12v3Zm-24,0h-12v-3h12v3Zm-24,0h-12v-3h12v3Zm-24,0h-12v-3h12v3Zm-24,0h-12v-3h12v3Z"/>
    </g>
    <rect class="cls-10" x="73.02381" y="132.57143" width="24.19653" height="23" rx="11.49999" ry="11.49999"/>
    <rect class="cls-10" x="104.5845" y="132.57143" width="24.19653" height="23" rx="11.49999" ry="11.49999"/>
    <rect class="cls-10" x="136.1452" y="132.57143" width="24.19653" height="23" rx="11.49999" ry="11.49999"/>
    <rect class="cls-10" x="166.65387" y="132.57143" width="24.19653" height="23" rx="11.49999" ry="11.49999"/>
    <rect class="cls-10" x="198.21456" y="132.57143" width="24.19653" height="23" rx="11.49999" ry="11.49999"/>
    <rect class="cls-10" x="230.82728" y="132.57143" width="24.19653" height="23" rx="11.49999" ry="11.49999"/>
    <rect class="cls-12" x="389.02381" y="478.01958" width="48.84947" height="72.57108"/>
    <rect class="cls-12" x="443.301" y="442.86796" width="49.93502" height="107.72269"/>
    <rect class="cls-12" x="500.83482" y="407.71635" width="48.84947" height="141.74039"/>
    <rect class="cls-4" x="515.24266" y="512.57143" width="72" height="72" rx="35.78111" ry="35.78111"/>
    <path class="cls-3" d="m581.35183,546.60204c.86739,8.4485-1.76486,16.35964-6.71647,22.3269-4.9364,5.93916-12.16848,9.94611-20.55003,10.63087l-.11138.00868c-16.85413,1.31354-31.92433-11.31695-33.65865-28.20954-.86739-8.44856,1.76486-16.35964,6.71647-22.3269,4.9564-5.96324,12.23216-9.98262,20.66141-10.63955l.11138-.00868c8.38797-.62218,16.32147,2.20284,22.38934,7.28437,6.08855,5.10684,10.29054,12.48529,11.15793,20.93385Z"/>
    <g>
      <path class="cls-12" d="m532.53162,558.39955v-21.67676h10.22754c1.08984,0,2.09473.21387,3.01367.6416.91895.42676,1.7041.9873,2.35645,1.67871.65137.69238,1.16504,1.47559,1.53906,2.35059.37305.87598.56055,1.77148.56055,2.6875,0,.875-.15527,1.71973-.46484,2.5332-.30957.81445-.74219,1.53711-1.29785,2.16797-.55664.63086-1.20801,1.15039-1.95605,1.55664l5.00098,8.06055h-5.80273l-4.35938-6.99121h-3.55957v6.99121h-5.25781Zm5.25781-11.3877h4.8418c.40527,0,.77441-.12207,1.10547-.36621s.60352-.59082.81738-1.03809c.21387-.44824.32129-.95703.32129-1.52637,0-.61133-.12305-1.13477-.36914-1.57324-.24609-.43652-.55566-.77832-.92969-1.02246s-.75293-.36621-1.1377-.36621h-4.64941v5.89258Z"/>
      <path class="cls-12" d="m564.07947,558.70522c-1.28223,0-2.39453-.25195-3.33398-.75391-.94141-.50195-1.67871-1.20508-2.21289-2.10938v9.06055h-5.12891v-22.34863h4.45605v2.58887c.61914-.88379,1.39941-1.57715,2.33984-2.0791s2.04102-.75391,3.30273-.75391c1.13281,0,2.1748.20117,3.12598.60352.9502.40137,1.7793.97949,2.48438,1.73242.70508.75391,1.25586,1.62207,1.65137,2.60645.39551.98535.59277,2.05078.59277,3.19531,0,1.56738-.31543,2.97363-.94531,4.21875-.63086,1.24609-1.49707,2.23047-2.59766,2.9541-1.10059.72266-2.3457,1.08496-3.73438,1.08496Zm-1.76367-4.12207c.55566,0,1.06348-.11426,1.52344-.3418.45898-.22852.85938-.53613,1.20215-.92285.3418-.38672.60352-.82715.78516-1.32324s.27246-1.02246.27246-1.57715c0-.57617-.10156-1.10059-.30469-1.57715-.20312-.47559-.48633-.89746-.84961-1.26465-.36328-.36621-.79102-.6543-1.28223-.86328-.49219-.20703-1.02539-.31152-1.60254-.31152-.34277,0-.68945.05371-1.04199.16113-.35254.1084-.68457.25-.99414.42676-.31055.17676-.59277.39746-.84961.66211s-.4707.56445-.6416.89746v3.28418c.23535.49316.54492.95117.92969,1.375.38477.4248.82324.75977,1.31445,1.00586.49219.24609,1.00488.36914,1.53906.36914Z"/>
    </g>
  </g>
</svg>