<?xml version="1.0" encoding="UTF-8"?>
<svg id="Layer_2" data-name="Layer 2" xmlns="http://www.w3.org/2000/svg" viewBox="0 0 424.03 120">
  <defs>
    <style>
      .cls-1 {
        fill: #292a69;
      }

      .cls-1, .cls-2 {
        stroke-width: 0px;
      }

      .cls-2 {
        fill: #fbae17;
      }
    </style>
  </defs>
  <g id="Layer_1-2" data-name="Layer 1">
    <path class="cls-1" d="m83.28,10.59v39.85L117,.38h-23.85c-5.45,0-9.87,4.57-9.87,10.21Z"/>
    <path class="cls-1" d="m67.22.42l12.01-.04v39.71c0,10.65-3.16,21.05-9.04,29.79l-2.79,4.14-.18-73.61"/>
    <path class="cls-2" d="m16.03,0h38.46c5.2,0,9.39,4.4,9.33,9.78l-.37,28.95S60.65,3.96,16.03,0Z"/>
    <path class="cls-1" d="m63.63,41.09l-28.69,78.57c-.1.28.26.47.43.23l22.08-32.86c3.91-5.6,5.96-12.35,5.88-19.41l.3-26.53"/>
    <path class="cls-2" d="m71.73,73.19l-31.91,46.81h50.92s-44.28-1.7-19.01-46.81Z"/>
    <path class="cls-1" d="m35.36,120h-15.46s1.53-20.7-19.9-46.39l14.72-7.56s18.59,17.34,20.64,53.95Z"/>
    <g>
      <path class="cls-1" d="m123.56,17.37h38.34l-1.77,8.81h-28.82l-3.71,18.06h25.03l-1.6,8.18h-25.03l-3.88,19.31h29.66l-1.85,8.81h-39.1l12.72-63.17Z"/>
      <path class="cls-1" d="m157.68,74.41l31.09-33.1h-23.51l1.43-6.94h33.62l-1.26,6.14-30.92,33.01h24.44l-1.43,7.03h-34.63l1.18-6.14Z"/>
      <path class="cls-1" d="m214.31,17.37h23.93c2.98,0,5.52.82,7.63,2.45,2.11,1.63,3.69,3.75,4.76,6.36,1.07,2.61,1.6,5.34,1.6,8.19s-.56,5.87-1.69,8.72c-1.12,2.85-2.7,5.44-4.72,7.79-2.02,2.34-4.35,4.21-6.99,5.61-2.64,1.39-5.45,2.09-8.43,2.09h-14.91l-4.38,21.98h-9.52l12.72-63.17Zm17.27,32.39c1.4,0,2.78-.4,4.13-1.2,1.35-.8,2.53-1.87,3.54-3.2,1.01-1.33,1.81-2.86,2.4-4.58.59-1.72.88-3.56.88-5.52,0-1.78-.29-3.35-.88-4.72-.59-1.36-1.39-2.43-2.4-3.2-1.01-.77-2.16-1.16-3.45-1.16h-13.73l-4.8,23.58h14.32Z"/>
      <path class="cls-1" d="m269.5,81.43c-3.26,0-6.07-.85-8.43-2.56s-4.16-4-5.39-6.88c-1.24-2.88-1.85-6.08-1.85-9.61,0-3.76.65-7.36,1.94-10.8,1.29-3.44,3.08-6.49,5.35-9.17,2.27-2.67,4.86-4.8,7.75-6.39,2.89-1.59,5.97-2.38,9.23-2.38s5.9.91,8.09,2.73c2.19,1.82,3.68,4.05,4.47,6.7l1.85-8.72h9.35l-7.08,34.22c-.06.23-.1.47-.13.7s-.04.47-.04.7c0,1.11.62,1.69,1.85,1.75l-1.6,8.36c-.79.12-1.49.22-2.11.31-.62.09-1.18.13-1.69.13-1.74,0-3.09-.38-4.04-1.13-.96-.75-1.43-1.8-1.43-3.14,0-.33.01-.68.04-1.05.03-.36.08-.81.17-1.34.08-.53.21-1.07.38-1.63-2.14,2.88-4.72,5.13-7.75,6.74-3.03,1.62-6.01,2.42-8.93,2.42Zm4.04-8.36c1.12,0,2.32-.23,3.58-.7,1.26-.47,2.5-1.09,3.71-1.88,1.21-.79,2.33-1.73,3.37-2.84,1.04-1.11,1.81-2.33,2.32-3.67l2.44-12.08c-.22-1.87-.8-3.54-1.73-5.03s-2.09-2.67-3.5-3.54c-1.41-.88-2.92-1.31-4.55-1.31-2.08,0-4.06.54-5.94,1.62-1.88,1.08-3.54,2.53-4.97,4.34-1.43,1.81-2.57,3.83-3.41,6.05-.84,2.22-1.26,4.47-1.26,6.75s.41,4.41,1.22,6.23c.81,1.81,1.97,3.28,3.46,4.39,1.49,1.11,3.24,1.67,5.27,1.67Z"/>
      <path class="cls-1" d="m297.47,97.54c-1.85,0-3.59-.31-5.22-.93-1.63-.62-3-1.65-4.13-3.07l5.39-6.58c.51.71,1.18,1.23,2.02,1.56.84.33,1.74.49,2.7.49s1.94-.29,2.95-.88c1.01-.59,1.88-1.39,2.61-2.39.73-1,1.24-2.15,1.52-3.45l9.69-47.91h9.27l-9.61,47.25c-.56,3.07-1.73,5.81-3.5,8.23-1.77,2.42-3.85,4.31-6.24,5.66-2.39,1.36-4.87,2.04-7.46,2.04Zm21.23-81.59h9.27l-2.19,10.77h-9.27l2.19-10.77Z"/>
      <path class="cls-1" d="m344.23,81.43c-3.26,0-6.07-.85-8.43-2.56s-4.16-4-5.39-6.88c-1.24-2.88-1.85-6.08-1.85-9.61,0-3.76.65-7.36,1.94-10.8,1.29-3.44,3.08-6.49,5.35-9.17,2.27-2.67,4.86-4.8,7.75-6.39,2.89-1.59,5.97-2.38,9.23-2.38s5.9.91,8.09,2.73c2.19,1.82,3.68,4.05,4.47,6.7l1.85-8.72h9.35l-7.08,34.22c-.06.23-.1.47-.13.7s-.04.47-.04.7c0,1.11.62,1.69,1.85,1.75l-1.6,8.36c-.79.12-1.49.22-2.11.31-.62.09-1.18.13-1.69.13-1.74,0-3.09-.38-4.04-1.13-.96-.75-1.43-1.8-1.43-3.14,0-.33.01-.68.04-1.05.03-.36.08-.81.17-1.34.08-.53.21-1.07.38-1.63-2.14,2.88-4.72,5.13-7.75,6.74-3.03,1.62-6.01,2.42-8.93,2.42Zm4.04-8.36c1.12,0,2.32-.23,3.58-.7,1.26-.47,2.5-1.09,3.71-1.88,1.21-.79,2.33-1.73,3.37-2.84,1.04-1.11,1.81-2.33,2.32-3.67l2.44-12.08c-.22-1.87-.8-3.54-1.73-5.03s-2.09-2.67-3.5-3.54c-1.41-.88-2.92-1.31-4.55-1.31-2.08,0-4.06.54-5.94,1.62-1.88,1.08-3.54,2.53-4.97,4.34-1.43,1.81-2.57,3.83-3.41,6.05-.84,2.22-1.26,4.47-1.26,6.75s.41,4.41,1.22,6.23c.81,1.81,1.97,3.28,3.46,4.39,1.49,1.11,3.24,1.67,5.27,1.67Z"/>
      <path class="cls-1" d="m393.02,15.6h9.18l-13.06,64.95h-9.18l13.06-64.95Zm6.99,43.23c5.06-1.11,8.92-2.9,11.59-5.37,2.67-2.46,4-5.04,4-7.74,0-1.41-.37-2.4-1.1-2.99-.73-.59-1.66-.88-2.78-.88-2.3,0-4.71.88-7.2,2.64-2.5,1.76-4.79,4.09-6.87,7-2.08,2.91-3.65,6.09-4.72,9.55l1.85-12.72c1.74-2.77,3.65-5.25,5.73-7.46,2.08-2.21,4.33-3.96,6.74-5.25,2.41-1.3,5-1.94,7.75-1.94,3.09,0,5.36.87,6.83,2.61,1.46,1.74,2.19,4.08,2.19,7.02,0,3.77-1.14,7.26-3.41,10.46-2.28,3.21-5.63,5.87-10.07,7.99l8.93,18.81h-9.94l-9.52-21.72Z"/>
    </g>
    <g>
      <path class="cls-2" d="m181.99,101.3h9.1l-.42,1.98h-6.84l-.88,4.06h5.94l-.38,1.84h-5.94l-.92,4.34h7.04l-.44,1.98h-9.28l3.02-14.2Z"/>
      <path class="cls-2" d="m190.09,114.12l7.38-7.44h-5.58l.34-1.56h7.98l-.3,1.38-7.34,7.42h5.8l-.34,1.58h-8.22l.28-1.38Z"/>
      <path class="cls-2" d="m208.65,101.3h5.68c.71,0,1.31.18,1.81.55.5.37.88.84,1.13,1.43.25.59.38,1.2.38,1.84s-.13,1.32-.4,1.96-.64,1.22-1.12,1.75c-.48.53-1.03.95-1.66,1.26-.63.31-1.29.47-2,.47h-3.54l-1.04,4.94h-2.26l3.02-14.2Zm4.1,7.28c.33,0,.66-.09.98-.27.32-.18.6-.42.84-.72s.43-.64.57-1.03c.14-.39.21-.8.21-1.24,0-.4-.07-.75-.21-1.06-.14-.31-.33-.55-.57-.72-.24-.17-.51-.26-.82-.26h-3.26l-1.14,5.3h3.4Z"/>
      <path class="cls-2" d="m221.75,115.7c-.77,0-1.44-.19-2-.58-.56-.38-.99-.9-1.28-1.54-.29-.65-.44-1.37-.44-2.16,0-.85.15-1.65.46-2.43.31-.77.73-1.46,1.27-2.06.54-.6,1.15-1.08,1.84-1.44.69-.36,1.42-.54,2.19-.54s1.4.21,1.92.61c.52.41.87.91,1.06,1.51l.44-1.96h2.22l-1.68,7.69c-.01.05-.02.1-.03.16,0,.05-.01.1-.01.16,0,.25.15.38.44.39l-.38,1.88c-.19.03-.35.05-.5.07-.15.02-.28.03-.4.03-.41,0-.73-.08-.96-.25-.23-.17-.34-.4-.34-.71,0-.08,0-.15,0-.23,0-.08.02-.18.04-.3.02-.12.05-.24.09-.37-.51.65-1.12,1.15-1.84,1.52-.72.36-1.43.54-2.12.54Zm.96-1.88c.27,0,.55-.05.85-.16s.59-.25.88-.42c.29-.18.55-.39.8-.64.25-.25.43-.52.55-.83l.58-2.71c-.05-.42-.19-.8-.41-1.13-.22-.33-.5-.6-.83-.8-.33-.2-.69-.29-1.08-.29-.49,0-.96.12-1.41.37-.45.24-.84.57-1.18.98-.34.41-.61.86-.81,1.36-.2.5-.3,1-.3,1.52s.1.99.29,1.4c.19.41.47.74.82.99.35.25.77.38,1.25.38Z"/>
      <path class="cls-2" d="m229.43,118.26c.53-.07.98-.16,1.33-.27s.66-.28.92-.5c.26-.22.54-.54.83-.95l.56-.83-1.88-10.58h2.26l1.18,8.46.68-1.13c.49-.79.92-1.51,1.27-2.15.35-.64.66-1.24.91-1.8.25-.56.47-1.12.65-1.66.18-.55.34-1.12.49-1.71h2.16c-.17.63-.37,1.23-.59,1.79-.22.56-.47,1.14-.76,1.74-.29.6-.65,1.29-1.1,2.05-.45.77-1,1.68-1.67,2.73l-1.6,2.56c-.47.73-.91,1.34-1.32,1.85s-.83.92-1.25,1.22-.86.53-1.31.66c-.45.14-.95.21-1.5.23l-.26-1.7Z"/>
      <path class="cls-2" d="m248.77,101.3h9.1l-.42,1.98h-6.84l-.88,4.06h5.94l-.38,1.84h-5.94l-.92,4.34h7.04l-.44,1.98h-9.28l3.02-14.2Z"/>
      <path class="cls-2" d="m256.87,114.12l7.38-7.44h-5.58l.34-1.56h7.98l-.3,1.38-7.34,7.42h5.8l-.34,1.58h-8.22l.28-1.38Z"/>
      <path class="cls-2" d="m275.43,101.3h5.68c.71,0,1.31.18,1.81.55.5.37.88.84,1.13,1.43.25.59.38,1.2.38,1.84s-.13,1.32-.4,1.96-.64,1.22-1.12,1.75c-.48.53-1.03.95-1.66,1.26-.63.31-1.29.47-2,.47h-3.54l-1.04,4.94h-2.26l3.02-14.2Zm4.1,7.28c.33,0,.66-.09.98-.27.32-.18.6-.42.84-.72s.43-.64.57-1.03c.14-.39.21-.8.21-1.24,0-.4-.07-.75-.21-1.06-.14-.31-.33-.55-.57-.72-.24-.17-.51-.26-.82-.26h-3.26l-1.14,5.3h3.4Z"/>
      <path class="cls-2" d="m288.53,115.7c-.77,0-1.44-.19-2-.58-.56-.38-.99-.9-1.28-1.54-.29-.65-.44-1.37-.44-2.16,0-.85.15-1.65.46-2.43.31-.77.73-1.46,1.27-2.06.54-.6,1.15-1.08,1.84-1.44.69-.36,1.42-.54,2.19-.54s1.4.21,1.92.61c.52.41.87.91,1.06,1.51l.44-1.96h2.22l-1.68,7.69c-.01.05-.02.1-.03.16,0,.05-.01.1-.01.16,0,.25.15.38.44.39l-.38,1.88c-.19.03-.35.05-.5.07-.15.02-.28.03-.4.03-.41,0-.73-.08-.96-.25-.23-.17-.34-.4-.34-.71,0-.08,0-.15,0-.23,0-.08.02-.18.04-.3.02-.12.05-.24.09-.37-.51.65-1.12,1.15-1.84,1.52-.72.36-1.43.54-2.12.54Zm.96-1.88c.27,0,.55-.05.85-.16s.59-.25.88-.42c.29-.18.55-.39.8-.64.25-.25.43-.52.55-.83l.58-2.71c-.05-.42-.19-.8-.41-1.13-.22-.33-.5-.6-.83-.8-.33-.2-.69-.29-1.08-.29-.49,0-.96.12-1.41.37-.45.24-.84.57-1.18.98-.34.41-.61.86-.81,1.36-.2.5-.3,1-.3,1.52s.1.99.29,1.4c.19.41.47.74.82.99.35.25.77.38,1.25.38Z"/>
      <path class="cls-2" d="m295.17,119.32c-.44,0-.85-.07-1.24-.21-.39-.14-.71-.37-.98-.69l1.28-1.48c.12.16.28.28.48.35s.41.11.64.11.46-.07.7-.2c.24-.13.45-.31.62-.54.17-.23.29-.48.36-.78l2.3-10.77h2.2l-2.28,10.62c-.13.69-.41,1.31-.83,1.85-.42.54-.91.97-1.48,1.27-.57.31-1.16.46-1.77.46Zm5.04-18.34h2.2l-.52,2.42h-2.2l.52-2.42Z"/>
      <path class="cls-2" d="m306.27,115.7c-.77,0-1.44-.19-2-.58-.56-.38-.99-.9-1.28-1.54-.29-.65-.44-1.37-.44-2.16,0-.85.15-1.65.46-2.43.31-.77.73-1.46,1.27-2.06.54-.6,1.15-1.08,1.84-1.44.69-.36,1.42-.54,2.19-.54s1.4.21,1.92.61c.52.41.87.91,1.06,1.51l.44-1.96h2.22l-1.68,7.69c-.01.05-.02.1-.03.16,0,.05-.01.1-.01.16,0,.25.15.38.44.39l-.38,1.88c-.19.03-.35.05-.5.07-.15.02-.28.03-.4.03-.41,0-.73-.08-.96-.25-.23-.17-.34-.4-.34-.71,0-.08,0-.15,0-.23,0-.08.02-.18.04-.3.02-.12.05-.24.09-.37-.51.65-1.12,1.15-1.84,1.52-.72.36-1.43.54-2.12.54Zm.96-1.88c.27,0,.55-.05.85-.16s.59-.25.88-.42c.29-.18.55-.39.8-.64.25-.25.43-.52.55-.83l.58-2.71c-.05-.42-.19-.8-.41-1.13-.22-.33-.5-.6-.83-.8-.33-.2-.69-.29-1.08-.29-.49,0-.96.12-1.41.37-.45.24-.84.57-1.18.98-.34.41-.61.86-.81,1.36-.2.5-.3,1-.3,1.52s.1.99.29,1.4c.19.41.47.74.82.99.35.25.77.38,1.25.38Z"/>
      <path class="cls-2" d="m317.85,100.9h2.18l-3.1,14.6h-2.18l3.1-14.6Zm1.66,9.72c1.2-.25,2.12-.65,2.75-1.21.63-.55.95-1.13.95-1.74,0-.32-.09-.54-.26-.67-.17-.13-.39-.2-.66-.2-.55,0-1.12.2-1.71.59-.59.4-1.14.92-1.63,1.57s-.87,1.37-1.12,2.15l.44-2.86c.41-.62.87-1.18,1.36-1.68.49-.5,1.03-.89,1.6-1.18.57-.29,1.19-.44,1.84-.44.73,0,1.27.2,1.62.59s.52.92.52,1.58c0,.85-.27,1.63-.81,2.35-.54.72-1.34,1.32-2.39,1.8l2.12,4.23h-2.36l-2.26-4.88Z"/>
    </g>
  </g>
</svg>