<svg width="19" height="19" viewBox="0 0 19 19" fill="none" xmlns="http://www.w3.org/2000/svg">
<path d="M9.94334 16.4825C9.81414 16.5753 9.65908 16.6252 9.50001 16.6252C9.34094 16.6252 9.18588 16.5753 9.05668 16.4825C5.23372 13.7576 1.17643 8.15258 5.27805 4.10242C6.40407 2.99476 7.9205 2.37431 9.50001 2.375C11.0833 2.375 12.6026 2.99646 13.722 4.10163C17.8236 8.15179 13.7663 13.756 9.94334 16.4825Z" stroke="#142143" stroke-width="1.5" stroke-linecap="round" stroke-linejoin="round"/>
<path d="M9.50002 9.49967C9.91995 9.49967 10.3227 9.33286 10.6196 9.03593C10.9165 8.73899 11.0834 8.33627 11.0834 7.91634C11.0834 7.49642 10.9165 7.09369 10.6196 6.79676C10.3227 6.49982 9.91995 6.33301 9.50002 6.33301C9.08009 6.33301 8.67737 6.49982 8.38043 6.79676C8.0835 7.09369 7.91669 7.49642 7.91669 7.91634C7.91669 8.33627 8.0835 8.73899 8.38043 9.03593C8.67737 9.33286 9.08009 9.49967 9.50002 9.49967Z" stroke="#142143" stroke-width="1.5" stroke-linecap="round" stroke-linejoin="round"/>
</svg>
